<?xml version="1.0" encoding="UTF-8" standalone="no"?>
<!DOCTYPE svg PUBLIC "-//W3C//DTD SVG 1.1//EN" "http://www.w3.org/Graphics/SVG/1.1/DTD/svg11.dtd">
<svg width="100%" height="100%" viewBox="0 0 1036 1318" version="1.1" xmlns="http://www.w3.org/2000/svg" xmlns:xlink="http://www.w3.org/1999/xlink" xml:space="preserve" xmlns:serif="http://www.serif.com/" style="fill-rule:evenodd;clip-rule:evenodd;stroke-linejoin:round;stroke-miterlimit:2;">
    <g id="Artboard1" transform="matrix(1,0,0,1,-65.949,-751.47)">
        <rect x="65.949" y="751.47" width="1035.98" height="1317.98" style="fill:none;"/>
        <clipPath id="_clip1">
            <rect x="65.949" y="751.47" width="1035.98" height="1317.98"/>
        </clipPath>
        <g clip-path="url(#_clip1)">
            <g id="circle857" transform="matrix(3.93735,0,0,3.93735,-1992.92,-785.441)">
                <circle cx="577.61" cy="670.74" r="54.46" style="fill:rgb(255,3,225);"/>
            </g>
            <g id="circle8571" serif:id="circle857" transform="matrix(3.90315,0,0,3.90315,-1826.02,-1653.49)">
                <circle cx="577.61" cy="670.74" r="54.46" style="fill:rgb(252,247,89);"/>
            </g>
            <g id="polygon851" transform="matrix(4.16667,0,0,4.16667,-2573.6,-1546.46)">
                <path d="M745.02,559.46L738.36,584.09L762.78,576.72L744.71,594.72L769.54,600.56L744.89,607.11L763.48,624.57L738.85,617.92L746.22,642.34L728.22,624.27L722.39,649.1L715.83,624.45L698.37,643.03L705.02,618.41L680.6,625.77L698.67,607.78L672.609,602.855L698.49,595.39L679.722,577.316L704.53,584.58L697.17,560.16L715.17,578.23L721,553.4L727.55,578.05L745.02,559.46Z" style="fill:rgb(96,232,170);fill-rule:nonzero;"/>
            </g>
            <g id="path883" transform="matrix(0.920025,0,0,0.920025,-526.053,109.111)">
                <path d="M792.969,1814.08L777.91,1777.61C773.244,1766.36 773.285,1753.9 777.994,1742.61C782.702,1731.32 791.494,1722.53 802.744,1717.86C826.035,1708.24 852.827,1719.36 862.452,1742.65L878.579,1781.71L895.47,1743.04C900.328,1731.87 909.323,1723.25 920.719,1718.8C932.115,1714.35 944.546,1714.57 955.715,1719.43C978.813,1729.51 989.406,1756.52 979.324,1779.62L964.64,1813.23L998.535,1799.24C1021.83,1789.61 1048.62,1800.74 1058.24,1824.07C1067.87,1847.36 1056.74,1874.15 1033.41,1883.78L996.971,1898.83L1033.37,1913.95C1056.66,1923.61 1067.74,1950.45 1058.04,1973.74C1050.74,1991.36 1033.7,2001.95 1015.74,2001.95C1009.91,2001.95 1003.99,2000.82 998.244,1998.45L961.83,1983.32L976.869,2019.74C986.494,2043.03 975.369,2069.82 952.035,2079.45C946.369,2081.86 940.494,2082.99 934.66,2082.99C916.702,2082.99 899.619,2072.32 892.327,2054.7L876.215,2015.68L859.331,2054.33C849.25,2077.43 822.243,2088.02 799.117,2077.91C793.443,2075.51 788.555,2072.06 784.505,2067.86C772.037,2054.94 767.854,2035.24 775.478,2017.75L790.114,1984.24L756.327,1998.2C750.619,2000.53 744.744,2001.65 738.952,2001.65C720.994,2001.65 703.91,1990.99 696.619,1973.36C686.994,1950.07 698.119,1923.28 721.452,1913.65L757.899,1898.6L721.41,1883.45C698.119,1873.78 687.035,1846.95 696.744,1823.65C706.41,1800.36 733.244,1789.28 756.535,1798.95L792.969,1814.08Z" style="fill:rgb(23,105,180);fill-rule:nonzero;"/>
            </g>
            <g id="circle8572" serif:id="circle857" transform="matrix(3.90315,0,0,3.90315,-1364.18,-1320.7)">
                <circle cx="577.61" cy="670.74" r="54.46" style="fill:rgb(96,232,170);"/>
            </g>
            <g id="path859" transform="matrix(1,0,0,1,315.169,10.6343)">
                <path d="M611.871,1416.64C564.492,1429.73 399.422,1334.14 436.116,1240.69C468.864,1157.28 549.425,1199.47 549.425,1199.47L549.558,1199.25C552.3,1194.69 597.343,1122.48 667.261,1173.91C748.29,1233.51 659.142,1402.98 612.148,1416.57L611.871,1416.64Z" style="fill:rgb(15,143,239);fill-rule:nonzero;"/>
            </g>
        </g>
    </g>
</svg>
