<?xml version="1.0" encoding="UTF-8" standalone="no"?>
<!DOCTYPE svg PUBLIC "-//W3C//DTD SVG 1.1//EN" "http://www.w3.org/Graphics/SVG/1.1/DTD/svg11.dtd">
<svg width="100%" height="100%" viewBox="0 0 1346 1092" version="1.1" xmlns="http://www.w3.org/2000/svg" xmlns:xlink="http://www.w3.org/1999/xlink" xml:space="preserve" xmlns:serif="http://www.serif.com/" style="fill-rule:evenodd;clip-rule:evenodd;stroke-miterlimit:10;">
    <g id="Artboard1" transform="matrix(0.906082,0,0,0.975325,-599.882,-652.592)">
        <rect x="662.061" y="669.102" width="1485.25" height="1119.52" style="fill:none;"/>
        <clipPath id="_clip1">
            <rect x="662.061" y="669.102" width="1485.25" height="1119.52"/>
        </clipPath>
        <g clip-path="url(#_clip1)">
            <g id="circle835" transform="matrix(4.59855,0,0,4.27208,-941.282,-1347.54)">
                <circle cx="616.28" cy="528.44" r="54.46" style="fill:rgb(255,3,225);"/>
            </g>
            <g id="g845" transform="matrix(4.59855,0,0,4.27208,-941.282,-1347.54)">
                <path id="path837" d="M600.62,566.13C597.55,564.85 596.08,561.29 597.35,558.22L624.03,494.01C625.31,490.94 628.87,489.47 631.94,490.74C635.01,492.02 636.48,495.58 635.21,498.65L608.53,562.86C607.26,565.94 603.7,567.41 600.62,566.13Z" style="fill:rgb(248,242,232);fill-rule:nonzero;stroke:rgb(248,242,232);stroke-width:9.11px;"/>
                <path id="path3190" d="M578.59,512.78C579.87,509.71 583.43,508.24 586.5,509.51L650.71,536.19C653.78,537.47 655.25,541.03 653.98,544.1C652.7,547.17 649.14,548.64 646.07,547.37L581.86,520.69C578.78,519.41 577.31,515.85 578.59,512.78Z" style="fill:rgb(248,242,232);fill-rule:nonzero;"/>
                <path d="M584.127,504.504C579.999,504.545 576.062,507.006 574.385,511.027C572.147,516.395 574.742,522.665 580.111,524.897L644.326,551.578L644.328,551.58C649.695,553.8 655.948,551.216 658.184,545.854L658.188,545.848L658.189,545.842C660.409,540.475 657.825,534.222 652.463,531.986L652.461,531.984L588.244,505.303L588.242,505.301C586.938,504.761 585.538,504.49 584.127,504.504ZM583.607,513.714C583.975,513.563 584.389,513.565 584.756,513.719L584.758,513.719L648.957,540.395C649.518,540.623 649.886,541.171 649.886,541.777C649.886,541.974 649.847,542.17 649.771,542.352C649.542,542.911 648.995,543.277 648.391,543.277C648.192,543.277 647.995,543.237 647.811,543.16L583.607,516.484C582.817,516.156 582.473,515.305 582.795,514.534C582.945,514.163 583.238,513.868 583.607,513.714Z" style="fill:rgb(248,242,232);fill-rule:nonzero;"/>
                <path d="M578.56,544.02C577.016,540.583 579.41,536.554 582.926,535.672C604.185,526.916 625.414,518.081 646.692,509.374C651.067,507.849 655.785,512.571 654.195,516.942C653.153,520.654 649.038,521.27 646.025,522.702C625.973,530.961 605.95,539.297 585.878,547.506C583.004,548.416 579.658,546.833 578.56,544.02Z" style="fill:rgb(248,242,232);fill-rule:nonzero;"/>
                <path d="M648.492,504.578C644.613,504.66 641.252,506.868 637.678,508.134C618.323,516.137 598.952,524.104 579.605,532.13C573.529,534.79 571.549,543.505 575.991,548.472C579.16,552.418 585.073,553.362 589.464,550.989C610.628,542.237 631.814,533.524 652.965,524.749C658.774,522.195 660.895,514.075 657.057,509.026C655.119,506.294 651.837,504.603 648.492,504.578Z" style="fill:rgb(248,242,232);fill-rule:nonzero;"/>
                <path d="M600.7,490.71C604.137,489.166 608.166,491.56 609.048,495.076C617.804,516.335 626.639,537.564 635.346,558.842C636.871,563.217 632.149,567.935 627.778,566.345C624.066,565.303 623.45,561.188 622.018,558.175C613.759,538.123 605.424,518.1 597.214,498.029C596.304,495.156 597.899,491.819 600.7,490.71Z" style="fill:rgb(248,242,232);fill-rule:nonzero;"/>
                <path d="M603.082,485.709C596.637,485.425 591.213,492.037 592.6,498.306C593.943,502.726 596.025,506.898 597.694,511.208C605.124,529.175 612.52,547.158 619.97,565.116C622.559,571.016 630.878,573.089 635.906,569.052C640.163,565.975 641.295,559.802 638.829,555.255C630.033,534.012 621.316,512.733 612.47,491.512C610.735,488.026 606.968,485.728 603.082,485.709ZM628.17,561.141C623.57,549.356 618.955,537.575 614.367,525.785C618.989,537.562 623.613,549.338 628.17,561.141Z" style="fill:rgb(248,242,232);fill-rule:nonzero;"/>
            </g>
            <g id="circle857" transform="matrix(4.59855,0,0,4.27208,-1730.49,-1379.08)">
                <circle cx="577.61" cy="670.74" r="54.46" style="fill:rgb(15,143,239);"/>
            </g>
            <g transform="matrix(1.10365,0,0,1.0253,-294.633,63.8432)">
                <g id="g863">
                    <path id="path859" d="M1144.91,1526.18C1094.34,1540.14 918.12,1438.1 957.292,1338.35C992.25,1249.3 1078.25,1294.35 1078.25,1294.35L1078.39,1294.11C1081.32,1289.24 1129.4,1212.15 1204.04,1267.05C1290.54,1330.68 1195.38,1511.6 1145.21,1526.1L1144.91,1526.18Z" style="fill:white;fill-rule:nonzero;"/>
                </g>
            </g>
            <g id="circle867" transform="matrix(4.49016,-0.922097,0.992564,4.17138,-2206.16,-982.627)">
                <circle cx="692.87" cy="757.2" r="54.45" style="fill:rgb(247,110,35);"/>
            </g>
            <g id="path869" transform="matrix(4.49016,-0.922097,0.992564,4.17138,-2206.16,-982.627)">
                <path d="M713.31,710.38L712.4,732.5C712.29,735.16 714.51,737.34 717.17,737.17L739.26,735.82C740.74,735.73 741.51,737.54 740.42,738.55L724.14,753.55C723.216,754.401 722.69,755.602 722.69,756.858C722.69,758.148 723.244,759.376 724.21,760.23L740.79,774.9C741.9,775.88 741.16,777.71 739.68,777.65L717.56,776.74C714.9,776.63 712.72,778.85 712.89,781.51L714.24,803.6C714.33,805.08 712.52,805.85 711.51,804.76L696.51,788.48C695.659,787.556 694.458,787.03 693.202,787.03C691.912,787.03 690.684,787.584 689.83,788.55L675.16,805.13C674.18,806.24 672.35,805.5 672.41,804.02L673.32,781.9C673.43,779.24 671.21,777.06 668.55,777.23L646.46,778.58C644.98,778.67 644.21,776.86 645.3,775.85L661.58,760.85C662.504,759.999 663.03,758.798 663.03,757.542C663.03,756.252 662.476,755.024 661.51,754.17L644.93,739.5C643.82,738.52 644.56,736.69 646.04,736.75L668.16,737.66C670.82,737.77 673,735.55 672.83,732.89L671.48,710.8C671.39,709.32 673.2,708.55 674.21,709.64L689.21,725.92C690.061,726.844 691.262,727.37 692.518,727.37C693.808,727.37 695.036,726.816 695.89,725.85L710.56,709.27C711.54,708.16 713.37,708.9 713.31,710.38Z" style="fill:rgb(224,32,105);fill-rule:nonzero;"/>
            </g>
        </g>
    </g>
</svg>
