<?xml version="1.0" encoding="utf-8"?>
<!-- Generator: Adobe Illustrator 24.0.1, SVG Export Plug-In . SVG Version: 6.00 Build 0)  -->
<svg version="1.1" id="Layer_1" xmlns="http://www.w3.org/2000/svg" xmlns:xlink="http://www.w3.org/1999/xlink" x="0px" y="0px"
	 viewBox="0 0 485.8 600" style="enable-background:new 0 0 485.8 600;" xml:space="preserve">
<style type="text/css">
	.st0{fill:#0F8FEF;}
	.st1{fill:#FFFFFF;stroke:#FFFFFF;stroke-width:2.8101;stroke-miterlimit:10;}
	.st2{fill:#FF03E1;}
	.st3{fill:#F8F2E8;stroke:#F8F2E8;stroke-width:15.7051;stroke-miterlimit:10;}
	.st4{fill:#195258;}
	.st5{fill:#F47C2C;}
	.st6{fill:#EFEFEF;}
</style>
<circle class="st0" cx="338.4" cy="181" r="93.9"/>
<path class="st1" d="M382.9,128c-33.7-24.8-55,11.9-55,11.9s-37.6-19.7-52.9,19.3c-17.2,43.7,60.3,88.5,82.2,82.1
	C379.1,235,420.7,155.8,382.9,128z"/>
<g>
	<circle class="st2" cx="131.7" cy="266.4" r="93.9"/>
	<g>
		<path class="st3" d="M104.7,331.4L104.7,331.4c-5.3-2.2-7.8-8.3-5.6-13.6l46-110.7c2.2-5.3,8.3-7.8,13.6-5.6l0,0
			c5.3,2.2,7.8,8.3,5.6,13.6l-46,110.7C116.1,331,110,333.6,104.7,331.4z"/>
		<path class="st3" d="M66.7,239.4L66.7,239.4c2.2-5.3,8.3-7.8,13.6-5.6l110.7,46c5.3,2.2,7.8,8.3,5.6,13.6l0,0
			c-2.2,5.3-8.3,7.8-13.6,5.6L72.3,253C67,250.8,64.5,244.7,66.7,239.4z"/>
		<path class="st3" d="M66.6,293.3L66.6,293.3c-2.2-5.3,0.4-11.4,5.7-13.6l110.8-45.7c5.3-2.2,11.4,0.4,13.6,5.7l0,0
			c2.2,5.3-0.4,11.4-5.7,13.6L80.2,298.9C74.9,301.1,68.8,298.6,66.6,293.3z"/>
		<path class="st3" d="M104.8,201.4L104.8,201.4c5.3-2.2,11.4,0.4,13.6,5.7l45.7,110.8c2.2,5.3-0.4,11.4-5.7,13.6l0,0
			c-5.3,2.2-11.4-0.4-13.6-5.7L99.1,215C96.9,209.7,99.5,203.6,104.8,201.4z"/>
	</g>
</g>
<g>
	<path class="st4" d="M331.2,284.9c49.7,14.9,77.9,67.2,63,116.9c-14.9,49.7-67.2,77.9-116.9,63s-77.9-67.2-63-116.9"/>
	<polygon class="st5" points="366.9,312.2 343,352.1 389.5,351.3 348.8,373.9 389.5,396.5 343,395.7 366.9,435.6 327,411.7 
		327.8,458.2 305.2,417.5 282.6,458.2 283.4,411.7 243.5,435.6 267.4,395.7 221,396.5 261.6,373.9 221,351.3 267.4,352.1 258,326.1 
		283.4,336.2 292.8,308 305.2,330.3 327.8,289.7 327,336.2 	"/>
	<path class="st6" d="M215.5,347c49.6,15,102-13.2,117-62.8"/>
</g>
</svg>
