<svg xmlns="http://www.w3.org/2000/svg" version="1.1" id="Layer_1" x="0" y="0" viewBox="0 0 475.067 533.803" xml:space="preserve" width="475.067" height="533.803"><style type="text/css" id="style833">.st12{opacity:.2;fill:#ffffff}</style><path class="st12" d="M107.032 339.505l2.2-1.84c10.55-8.81 26.65-4.5 31.39 8.41l.99 2.69a10.37 10.37 0 0011.5 6.64l2.83-.49c13.54-2.35 25.33 9.43 22.98 22.98l-.49 2.82c-.85 4.93 1.94 9.77 6.64 11.5l2.69.99c12.9 4.74 17.22 20.83 8.41 31.39l-1.84 2.2a10.347 10.347 0 000 13.27l1.84 2.2c8.81 10.56 4.49 26.65-8.41 31.39l-2.69.99c-4.7 1.73-7.49 6.56-6.64 11.49l.49 2.83c2.35 13.54-9.43 25.33-22.98 22.98l-2.83-.49c-4.93-.86-9.77 1.94-11.5 6.63l-.99 2.69c-4.74 12.9-20.83 17.21-31.39 8.41l-2.2-1.84a10.347 10.347 0 00-13.27 0l-2.2 1.84c-10.55 8.8-26.65 4.49-31.39-8.41l-.99-2.69c-1.73-4.7-6.56-7.49-11.5-6.63l-2.83.49c-13.54 2.35-25.33-9.43-22.98-22.98l.49-2.83c.85-4.93-1.94-9.77-6.64-11.49l-2.69-.99c-12.9-4.74-17.22-20.83-8.41-31.39l1.84-2.2c3.21-3.84 3.21-9.43 0-13.27l-1.84-2.2c-8.81-10.56-4.49-26.65 8.41-31.39l2.69-.99a10.37 10.37 0 006.64-11.5l-.49-2.82c-2.35-13.54 9.43-25.33 22.98-22.98l2.83.49c4.93.85 9.77-1.94 11.5-6.64l.99-2.69c4.74-12.91 20.83-17.22 31.39-8.41l2.2 1.84c3.84 3.21 9.43 3.21 13.27 0" id="path943"/><path class="st12" d="M340.752 2.775l19.68 55.33c2.37 6.66 9.98 9.81 16.37 6.78l53.03-25.21c3.55-1.69 7.25 2.01 5.56 5.56l-25.21 53.03c-3.04 6.39.12 14 6.78 16.36l55.33 19.68c3.7 1.32 3.7 6.55 0 7.87l-55.33 19.68c-6.66 2.37-9.82 9.98-6.78 16.37l25.21 53.03c1.69 3.55-2.02 7.25-5.56 5.56l-53.03-25.21c-6.39-3.04-14 .12-16.37 6.78l-19.68 55.33c-1.32 3.7-6.55 3.7-7.87 0l-19.67-55.33c-2.37-6.66-9.98-9.82-16.37-6.78l-53.03 25.21c-3.55 1.69-7.25-2.02-5.56-5.56l25.21-53.03c3.04-6.39-.12-14-6.78-16.37l-55.33-19.68c-3.7-1.32-3.7-6.55 0-7.87l55.33-19.68c6.66-2.37 9.81-9.98 6.78-16.36l-25.21-53.03c-1.69-3.55 2.01-7.25 5.56-5.56l53.03 25.21c6.39 3.04 14-.12 16.37-6.78l19.67-55.33c1.32-3.7 6.56-3.7 7.87 0" id="path945"/></svg>
